<svg xmlns="http://www.w3.org/2000/svg" viewBox="0 0 720 560" role="img" aria-label="Children learning English in a bright classroom">
  <rect width="720" height="560" rx="32" fill="#fff3df"/>
  <rect x="54" y="56" width="612" height="376" rx="28" fill="#ffffff" stroke="#d9e1ea" stroke-width="4"/>
  <rect x="100" y="96" width="258" height="154" rx="18" fill="#e9f4ff"/>
  <rect x="386" y="96" width="196" height="154" rx="18" fill="#f8e9ff"/>
  <path d="M126 214h206" stroke="#3d7ff0" stroke-width="14" stroke-linecap="round"/>
  <path d="M414 135h140M414 175h110M414 215h78" stroke="#8b5cf6" stroke-width="14" stroke-linecap="round"/>
  <circle cx="180" cy="350" r="54" fill="#ffd3a6"/>
  <path d="M126 526v-78c0-36 24-66 54-66s54 30 54 66v78" fill="#3d7ff0"/>
  <path d="M135 332c12-44 82-44 94 0-28-8-66-8-94 0z" fill="#172033"/>
  <circle cx="168" cy="356" r="6" fill="#172033"/>
  <circle cx="194" cy="356" r="6" fill="#172033"/>
  <path d="M168 376c11 9 24 9 35 0" stroke="#172033" stroke-width="5" fill="none" stroke-linecap="round"/>
  <circle cx="492" cy="350" r="54" fill="#f3c7a1"/>
  <path d="M438 526v-78c0-36 24-66 54-66s54 30 54 66v78" fill="#1f8a70"/>
  <path d="M442 330c18-50 82-42 102 3-30-11-73-12-102-3z" fill="#5a351f"/>
  <circle cx="480" cy="356" r="6" fill="#172033"/>
  <circle cx="506" cy="356" r="6" fill="#172033"/>
  <path d="M480 378c10 8 23 8 35 0" stroke="#172033" stroke-width="5" fill="none" stroke-linecap="round"/>
  <rect x="248" y="318" width="224" height="150" rx="18" fill="#ffffff" stroke="#d9e1ea" stroke-width="4"/>
  <path d="M286 358h150M286 394h112M286 430h138" stroke="#1f8a70" stroke-width="13" stroke-linecap="round"/>
  <circle cx="604" cy="384" r="42" fill="#f4b942"/>
  <path d="M586 384h36M604 366v36" stroke="#172033" stroke-width="8" stroke-linecap="round"/>
  <circle cx="92" cy="292" r="28" fill="#ee6c4d"/>
  <text x="82" y="303" font-family="Arial, Helvetica, sans-serif" font-size="30" font-weight="700" fill="#fff">A</text>
  <circle cx="626" cy="290" r="28" fill="#3d7ff0"/>
  <text x="617" y="301" font-family="Arial, Helvetica, sans-serif" font-size="30" font-weight="700" fill="#fff">B</text>
</svg>
